<?xml version="1.0" standalone="no"?>
<!DOCTYPE svg PUBLIC "-//W3C//DTD SVG 20010904//EN"
 "http://www.w3.org/TR/2001/REC-SVG-20010904/DTD/svg10.dtd">
<svg version="1.0" xmlns="http://www.w3.org/2000/svg"
 width="531.000000pt" height="95.000000pt" viewBox="0 0 531.000000 95.000000"
 preserveAspectRatio="xMidYMid meet">

<g transform="translate(0.000000,95.000000) scale(0.100000,-0.100000)"
fill="#000000" stroke="none">
<path d="M1140 943 c-147 -24 -275 -109 -346 -230 -22 -37 -44 -77 -48 -88
-16 -42 -43 -197 -39 -216 3 -10 0 -26 -7 -34 -6 -8 -10 -18 -7 -22 10 -17
-14 -54 -54 -83 -32 -23 -45 -27 -55 -19 -11 9 -14 8 -14 -4 0 -19 -66 -40
-175 -57 -221 -34 -436 -104 -383 -125 9 -3 36 2 60 13 58 27 92 35 308 78
206 40 262 60 310 109 29 30 33 42 45 133 19 144 34 211 60 262 29 57 149 175
206 205 68 34 166 49 230 36 95 -20 144 -59 232 -186 28 -39 32 -23 11 36 -30
85 -118 156 -229 185 -51 14 -60 15 -105 7z"/>
<path d="M4331 788 c-34 -18 -42 -44 -10 -32 13 5 138 8 278 7 192 -2 251 1
242 10 -12 12 -21 13 -296 22 -146 5 -196 3 -214 -7z"/>
<path d="M1260 735 c0 -9 -9 -15 -25 -15 -41 0 -139 -44 -174 -79 -17 -17 -36
-31 -41 -31 -6 0 -10 -6 -10 -14 0 -10 14 -7 53 13 28 14 54 29 55 34 2 4 9 7
17 7 7 0 18 7 25 15 7 8 25 15 40 15 34 0 56 -40 39 -71 -6 -11 -8 -27 -5 -35
13 -33 -60 -240 -137 -391 -40 -78 -45 -110 -12 -83 8 7 34 47 57 89 57 103
132 213 157 229 12 7 21 21 21 31 0 26 20 37 32 20 17 -25 -23 -259 -44 -259
-11 0 -10 -42 2 -60 8 -13 14 -13 45 4 48 26 245 201 245 218 0 4 7 8 15 8 19
0 19 -35 1 -88 -8 -22 -18 -61 -21 -86 -10 -62 9 -67 64 -19 23 21 70 63 104
93 93 83 100 88 140 105 35 14 38 14 57 -5 29 -29 28 -102 -2 -130 -12 -11
-35 -20 -51 -20 -39 0 -30 -24 11 -28 80 -8 115 59 90 172 -8 34 -49 59 -89
53 -42 -5 -150 -85 -167 -122 -6 -13 -24 -32 -39 -41 -15 -10 -40 -29 -55 -43
-32 -28 -33 -24 -14 39 7 25 17 73 21 108 7 62 7 62 -19 62 -16 0 -41 -14 -65
-35 -21 -19 -42 -35 -47 -35 -5 -1 -22 -21 -38 -46 -28 -45 -131 -132 -143
-121 -3 4 -1 19 5 34 18 45 42 161 42 201 0 37 -31 102 -49 102 -5 0 -28 -21
-50 -47 -22 -26 -43 -44 -47 -40 -4 3 -1 33 6 66 7 33 12 79 12 103 -2 84 -5
138 -9 138 -1 0 -3 -7 -3 -15z m-24 -333 c-18 -16 -18 -16 -6 6 6 13 14 21 18
18 3 -4 -2 -14 -12 -24z"/>
<path d="M3372 718 c-5 -7 -25 -44 -43 -83 -28 -58 -34 -82 -34 -140 0 -38 -4
-76 -8 -82 -9 -14 -118 -19 -130 -6 -4 3 4 21 18 39 14 18 25 35 25 39 0 9
-44 -17 -57 -34 -17 -22 -16 -68 1 -74 32 -13 104 -17 141 -10 l40 9 2 83 c1
74 5 91 42 168 23 47 41 89 41 94 0 13 -26 11 -38 -3z"/>
<path d="M4499 683 c-22 -20 -45 -46 -50 -58 -6 -11 -16 -31 -24 -45 -8 -14
-14 -38 -14 -55 1 -30 1 -30 13 7 6 20 21 47 34 60 12 14 22 28 22 34 0 5 18
22 40 38 41 31 47 40 30 51 -5 3 -28 -11 -51 -32z"/>
<path d="M2345 695 c-19 -14 -18 -14 12 -15 47 0 130 -34 158 -64 14 -15 30
-44 36 -65 11 -38 10 -42 -25 -89 -41 -57 -58 -112 -33 -112 23 0 95 77 102
110 4 17 11 33 17 36 21 13 33 -20 39 -107 4 -49 9 -92 12 -96 4 -3 26 13 49
36 24 22 49 41 56 41 7 0 10 4 7 10 -9 15 13 49 46 69 17 10 30 23 29 27 -2
12 35 22 85 24 37 1 38 2 15 11 -14 6 -45 7 -69 4 -37 -6 -54 -16 -98 -63 -63
-66 -78 -64 -104 12 -18 52 -31 66 -67 66 -15 0 -26 9 -33 28 -31 79 -44 96
-94 118 -70 31 -117 37 -140 19z m205 -265 c0 -5 -4 -10 -10 -10 -5 0 -10 5
-10 10 0 6 5 10 10 10 6 0 10 -4 10 -10z m158 -60 c-14 -22 -24 -19 -15 5 4 8
11 15 17 15 6 0 6 -7 -2 -20z"/>
<path d="M4612 651 c-80 -85 -117 -198 -77 -231 17 -14 172 -9 315 10 41 5
153 14 248 20 149 9 224 21 210 35 -10 10 -481 -26 -548 -42 -76 -19 -191 -16
-212 5 -12 12 58 147 98 187 40 40 41 45 13 45 -11 0 -33 -13 -47 -29z"/>
<path d="M3697 549 c-14 -16 -29 -39 -32 -49 -8 -25 -25 -26 -32 -2 -6 23 -91
62 -136 62 -50 0 -127 -12 -127 -19 0 -4 35 -8 77 -10 114 -4 173 -34 173 -90
0 -15 -11 -60 -25 -99 -14 -39 -25 -81 -25 -92 0 -48 60 -26 82 30 5 14 10 52
10 85 0 34 7 73 15 90 9 17 22 41 29 55 26 50 35 36 28 -44 -6 -68 -5 -76 11
-76 9 0 30 10 47 21 22 16 32 19 41 10 17 -17 60 -13 112 9 56 24 55 24 55 5
0 -43 147 -33 164 11 7 18 36 18 60 -1 22 -17 62 -20 70 -6 3 5 -5 12 -18 15
-15 4 -28 17 -35 36 -8 26 -13 29 -28 21 -10 -5 -27 -19 -37 -30 -20 -22 -119
-56 -135 -47 -15 10 -1 42 30 72 26 25 40 74 21 74 -4 0 -29 -22 -56 -49 -51
-52 -128 -96 -151 -87 -21 8 -19 18 11 61 24 36 26 65 5 65 -6 0 -15 -10 -22
-22 -16 -33 -91 -108 -106 -108 -15 0 -17 38 -4 73 8 19 6 28 -7 39 -32 27
-38 27 -65 -3z m-71 -244 c-4 -14 -11 -25 -16 -25 -5 0 -7 7 -5 15 3 8 7 22
10 31 9 26 18 8 11 -21z"/>
<path d="M3940 170 c0 -5 5 -10 11 -10 5 0 7 5 4 10 -3 6 -8 10 -11 10 -2 0
-4 -4 -4 -10z"/>
<path d="M3769 166 c-6 -7 -691 -83 -897 -101 -101 -8 -246 -15 -322 -15 -135
0 -173 -9 -139 -31 26 -17 485 11 764 46 602 76 645 83 645 96 0 9 -43 13 -51
5z"/>
</g>
</svg>
