<?xml version="1.0" standalone="no"?>
<!DOCTYPE svg PUBLIC "-//W3C//DTD SVG 20010904//EN"
 "http://www.w3.org/TR/2001/REC-SVG-20010904/DTD/svg10.dtd">
<svg version="1.0" xmlns="http://www.w3.org/2000/svg"
 width="404.000000pt" height="316.000000pt" viewBox="0 0 404.000000 316.000000"
 preserveAspectRatio="xMidYMid meet">

<g transform="translate(0.000000,316.000000) scale(0.100000,-0.100000)"
fill="#000000" stroke="none">
<path d="M1170 3140 c-11 -11 -35 -26 -55 -34 -57 -24 -105 -67 -136 -120 -15
-28 -37 -57 -48 -63 -20 -12 -66 -91 -59 -99 3 -2 24 17 48 41 24 25 47 45 51
45 3 0 2 -26 -4 -57 -9 -56 -31 -95 -86 -155 -14 -16 -21 -28 -17 -28 18 0 66
32 89 60 14 16 28 30 31 30 14 0 4 -23 -20 -47 -22 -22 -25 -30 -15 -45 14
-23 14 -38 -1 -38 -31 0 -73 -104 -59 -144 6 -17 9 -15 20 12 13 31 39 47 27
17 -3 -8 10 -34 29 -59 18 -24 38 -64 43 -88 8 -33 10 -37 11 -15 2 52 18 27
25 -39 8 -75 22 -111 66 -169 21 -28 32 -57 37 -93 4 -34 10 -52 19 -52 8 0
14 -4 14 -10 0 -5 5 -10 10 -10 6 0 10 8 10 17 0 15 1 15 13 -2 10 -13 16 -15
21 -6 5 8 18 -2 37 -29 35 -49 54 -52 45 -9 -5 24 -3 30 8 26 8 -3 32 -9 53
-13 56 -10 73 -22 73 -50 0 -39 25 -90 64 -127 20 -20 41 -54 50 -83 l15 -49
0 38 c1 20 4 37 7 37 4 0 21 -12 38 -27 17 -16 42 -35 54 -43 18 -12 24 -28
29 -82 4 -44 2 -77 -6 -97 -15 -34 -113 -98 -288 -185 -62 -31 -141 -73 -176
-95 -35 -21 -115 -66 -178 -101 -62 -34 -144 -86 -181 -116 -60 -49 -68 -59
-88 -121 -13 -37 -36 -101 -51 -141 -23 -57 -29 -89 -30 -150 0 -94 -12 -198
-38 -362 -12 -69 -24 -144 -27 -167 l-7 -43 925 0 926 0 11 46 c23 92 85 184
123 184 15 0 12 -8 -17 -45 -26 -35 -75 -152 -75 -181 0 -2 47 -4 104 -4 109
0 116 3 116 49 0 27 65 154 91 177 17 16 30 19 44 14 11 -5 15 -9 9 -9 -29 -2
-104 -156 -104 -213 0 -17 24 -18 605 -18 l605 0 -4 23 c-3 12 -10 49 -16 82
-6 33 -31 146 -56 250 -25 105 -57 240 -71 300 -48 205 -116 378 -196 501 -54
83 -61 90 -124 114 -37 14 -47 23 -46 39 2 17 105 460 189 811 14 58 29 139
35 180 12 101 81 241 153 316 l53 55 37 -22 c33 -19 39 -20 53 -7 9 9 15 35
15 62 1 39 -4 52 -30 79 -18 18 -32 40 -32 48 0 14 57 91 72 97 5 2 8 55 8
118 l0 114 -163 0 -164 0 -19 -42 c-10 -24 -42 -80 -70 -125 -56 -89 -54 -78
-69 -348 -2 -33 -39 -197 -83 -365 -44 -168 -107 -424 -141 -570 -34 -146 -86
-362 -116 -480 -30 -118 -79 -318 -109 -445 -30 -126 -73 -304 -95 -394 -23
-91 -41 -175 -41 -188 0 -13 -4 -23 -10 -23 -5 0 -10 10 -10 23 0 12 56 270
124 572 68 303 127 565 131 583 6 31 5 33 -38 51 -25 11 -108 36 -184 56 -191
51 -300 83 -322 94 -10 6 -36 43 -57 83 -102 197 -96 187 -133 198 -51 14 -61
13 -54 -7 3 -10 3 -15 -2 -11 -7 7 -10 24 -14 71 0 10 -5 15 -11 12 -6 -3 -7
1 -4 10 4 8 2 21 -4 28 -5 6 -20 46 -32 87 -12 41 -28 95 -36 119 -8 24 -13
46 -10 48 4 5 56 -155 72 -221 l7 -29 20 24 c16 20 18 34 13 81 -5 53 -4 59
29 100 18 24 48 57 64 73 28 27 31 36 31 90 0 56 -2 62 -35 90 -34 29 -35 32
-24 63 8 25 9 47 0 90 -14 72 -36 134 -44 126 -3 -3 -3 3 0 15 8 30 -21 69
-51 69 -16 0 -23 -5 -19 -12 3 -6 -6 0 -20 13 -15 14 -27 26 -27 27 0 2 16 -4
35 -12 40 -17 43 -12 15 34 l-21 34 22 5 c20 6 20 6 -6 27 -27 22 -27 23 -11
54 17 33 9 40 -22 21 -14 -9 -25 -3 -61 30 -55 51 -122 86 -133 68 -6 -9 -10
-9 -20 1 -10 10 -10 15 2 22 12 7 7 12 -20 24 -20 8 -44 24 -54 35 -19 21 -26
21 -438 21 -403 0 -419 -1 -438 -20z m351 -130 c26 -53 43 -66 33 -25 -4 15
-2 25 5 25 6 0 11 -6 11 -13 0 -18 49 -64 83 -76 34 -13 35 -5 2 21 -14 11
-25 25 -25 32 0 7 -14 32 -31 55 -17 24 -29 44 -27 46 11 12 95 -42 157 -100
62 -59 70 -71 65 -94 -4 -14 -14 -34 -22 -43 -8 -10 -10 -18 -4 -18 16 0 62
59 62 81 0 11 -7 31 -16 45 -25 37 -13 38 35 2 41 -30 43 -33 37 -73 -10 -66
15 -107 28 -45 6 33 26 41 26 11 0 -10 6 -18 13 -18 15 1 97 -36 97 -44 0 -3
-37 -26 -82 -51 l-83 -45 -33 28 c-26 23 -42 29 -81 29 -91 0 -251 -105 -251
-166 0 -16 -13 -37 -36 -59 -29 -28 -40 -32 -59 -25 -41 16 -137 -24 -202 -83
l-23 -20 0 32 c0 26 -10 42 -45 77 -49 48 -51 51 -30 77 11 15 11 24 2 45 -9
20 -9 26 1 30 7 2 10 7 7 11 -2 4 -1 21 4 37 l8 29 12 -40 c24 -76 21 -71 31
-55 14 21 12 61 -5 127 -22 83 -6 122 27 66 28 -51 29 -93 3 -167 -13 -39 -23
-71 -21 -73 4 -5 57 81 74 120 22 50 15 81 -28 130 -44 49 -47 59 -26 76 12
10 18 7 31 -19 28 -55 112 -88 154 -61 10 7 8 10 -10 16 -41 12 -89 37 -89 45
0 5 14 1 31 -7 45 -23 108 -27 154 -11 23 8 51 11 65 7 38 -11 90 -10 90 1 0
6 -3 10 -7 11 -66 6 -127 43 -163 98 -34 50 -37 63 -14 54 12 -4 14 0 8 23 -7
28 -7 29 13 11 11 -9 31 -39 44 -67z m805 -271 c11 -23 13 -34 5 -42 -8 -8
-11 -5 -11 12 0 12 -5 31 -10 42 -6 10 -8 19 -6 19 3 0 13 -14 22 -31z m-225
-79 c5 0 11 12 15 28 3 15 7 31 8 36 1 5 13 -7 25 -28 21 -33 23 -44 16 -111
-6 -71 -5 -76 19 -100 14 -14 33 -25 42 -25 16 0 16 1 1 18 -22 24 -21 41 3
72 16 20 20 22 20 8 0 -33 16 -18 29 27 12 42 12 66 -4 135 -3 14 2 7 10 -15
12 -29 15 -57 10 -100 -7 -65 8 -182 24 -198 7 -7 8 2 4 26 -8 54 5 130 22
123 13 -5 18 9 28 82 2 17 20 17 26 1 2 -7 -1 -9 -9 -4 -9 5 -11 4 -6 -4 4 -6
0 -32 -10 -57 -13 -34 -14 -48 -6 -56 27 -27 9 -97 -32 -130 -28 -23 -49 -22
-71 2 -10 11 -21 17 -25 15 -11 -7 6 -78 29 -117 26 -46 37 -83 21 -73 -10 6
-11 1 -7 -21 10 -50 -100 -260 -180 -345 -85 -90 -178 -139 -264 -139 -54 0
-63 3 -97 34 l-37 35 29 11 c26 10 28 14 23 47 -4 22 -19 50 -38 70 -18 18
-31 34 -28 36 2 2 21 13 43 25 51 30 137 103 131 112 -3 4 3 14 13 21 15 13
16 12 3 -3 -27 -35 8 -17 43 22 35 39 45 60 28 60 -31 0 -142 -49 -185 -81
-28 -21 -56 -39 -61 -39 -5 0 -17 -7 -27 -16 -17 -15 -18 -14 -25 21 -3 20 -3
53 1 73 14 74 12 83 -25 103 -22 12 -38 15 -44 9 -15 -15 -53 -12 -70 6 -11
10 -16 34 -16 70 0 29 -8 76 -19 103 -18 49 -18 50 1 70 25 27 31 26 65 -7 15
-16 54 -39 86 -50 117 -44 232 -18 268 62 20 45 24 101 10 139 -9 22 -6 28 27
50 20 14 55 34 77 45 l40 20 18 -49 c10 -27 22 -49 28 -49z m287 25 c0 -16 -2
-15 -8 5 -11 34 -11 60 0 35 5 -11 8 -29 8 -40z m-43 -31 c-2 -19 -6 -38 -9
-41 -3 -3 -3 12 -1 33 5 47 4 44 9 44 3 0 3 -16 1 -36z m95 -23 c0 -9 -5 -23
-10 -31 -8 -11 -9 -8 -4 13 4 20 1 34 -12 50 l-19 22 23 -19 c12 -11 22 -26
22 -35z m-113 -53 c-3 -8 -6 -5 -6 6 -1 11 2 17 5 13 3 -3 4 -12 1 -19z m-25
-458 c3 -17 1 -33 -4 -36 -4 -3 -8 11 -8 30 0 44 6 47 12 6z m-477 -60 c-3 -5
-11 -10 -16 -10 -6 0 -7 5 -4 10 3 6 11 10 16 10 6 0 7 -4 4 -10z m469 -221
c-9 -41 -17 -82 -17 -91 -1 -9 -5 -14 -9 -12 -4 3 -8 0 -8 -5 0 -6 -14 -33
-31 -61 -17 -27 -28 -54 -24 -60 3 -5 1 -18 -5 -27 -9 -15 -10 -14 -5 7 5 22
5 23 -6 6 -15 -25 -16 -119 -1 -124 7 -2 9 -8 6 -13 -7 -11 14 -39 28 -39 6 0
8 7 5 14 -4 10 -1 13 9 9 8 -3 23 3 32 13 84 93 112 128 112 136 0 5 -4 7 -9
3 -5 -3 -12 -1 -16 4 -3 6 3 8 15 6 27 -5 54 35 45 67 -4 14 -3 18 2 11 6 -9
12 -4 20 16 8 24 7 37 -8 70 -10 23 -14 41 -9 41 4 0 16 -19 25 -43 16 -42 16
-45 -9 -100 -44 -101 -197 -274 -230 -261 -8 3 -21 31 -29 62 -21 75 -12 119
42 207 56 94 71 149 79 285 l7 115 3 -81 c2 -50 -4 -110 -14 -155z m60 63 c2
-4 -4 -8 -14 -8 -10 0 -16 4 -14 8 3 4 9 8 14 8 5 0 11 -4 14 -8z m-4 -323 c0
-6 -4 -7 -10 -4 -5 3 -10 11 -10 16 0 6 5 7 10 4 6 -3 10 -11 10 -16z m-46
-35 c3 -8 2 -12 -4 -9 -6 3 -10 10 -10 16 0 14 7 11 14 -7z m36 10 c0 -8 -19
-13 -24 -6 -3 5 1 9 9 9 8 0 15 -2 15 -3z m-82 -79 c-3 -3 -9 2 -12 12 -6 14
-5 15 5 6 7 -7 10 -15 7 -18z m275 -325 c24 -19 26 -29 18 -82 -2 -12 -60 -10
-82 3 -12 6 -18 17 -15 25 3 9 1 12 -4 9 -14 -9 -12 39 2 53 18 18 52 15 81
-8z"/>
<path d="M1469 2553 c-13 -16 -12 -17 4 -4 9 7 17 15 17 17 0 8 -8 3 -21 -13z"/>
<path d="M2151 2652 c0 -13 -7 -35 -14 -50 -8 -15 -14 -43 -16 -61 -2 -38 9
-38 13 0 1 13 8 41 15 61 7 21 10 46 8 55 -3 13 -5 12 -6 -5z"/>
<path d="M1678 2292 c-26 -16 -36 -41 -22 -55 8 -8 64 13 64 25 0 6 7 8 15 4
10 -3 15 1 15 13 0 10 -7 22 -16 25 -21 8 -24 7 -56 -12z"/>
</g>
</svg>
